#!OML:ASF F:\VICON\USERDATA\INSTALL\rory3\rory3.ASF
:FULLY-SPECIFIED
:DEGREES
541
root -1.86688 16.6361 27.2282 213.82 147.777 -172.596
lowerback -23.0763 -1.92971 -1.9529
upperback -12.3324 -1.76827 0.069542
thorax -0.592575 -0.640664 0.794375
lowerneck -10.727 -2.07942 -1.81646
upperneck 41.8378 -1.08197 -2.28386
head 17.0438 -0.806866 -0.816367
rclavicle -8.79125e-014 -1.66979e-014
rhumerus -54.4776 -7.67579 -57.577
rradius 9.66716
rwrist 6.39035
rhand 8.44429 10.6296
rfingers 7.12502
rthumb 33.6493 -16.2313
lclavicle -8.79125e-014 -1.66979e-014
lhumerus -237.552 -183.593 240.981
lradius 23.4088
lwrist -9.54251
lhand 7.35047 23.0397
lfingers 7.12502
lthumb 32.6092 50.1215
rfemur 121.343 -181.917 -154.585
rtibia 43.3688
rfoot -40.8481 -37.337
rtoes 37.5291
lfemur -14.3259 -4.38746 -25.5887
ltibia 35.0937
lfoot -3.5918 36.9208
ltoes 15.2827
542
root -1.85694 16.642 27.2386 214.107 147.847 -172.384
lowerback -23.0936 -1.91051 -1.95184
upperback -12.4275 -1.73993 0.0617646
thorax -0.690829 -0.623835 0.792471
lowerneck -10.463 -2.11091 -1.58102
upperneck 41.8553 -1.04703 -2.65485
head 16.9795 -0.802122 -1.01677
rclavicle -1.22551e-013 -2.06736e-014
rhumerus -54.9746 -6.93227 -58.0063
rradius 10.459
rwrist 5.44442
rhand 10.1047 10.7514
rfingers 7.12502
rthumb 35.2257 -15.7517
lclavicle -1.22551e-013 -2.06736e-014
lhumerus -237.63 -183.424 241.122
lradius 23.3268
lwrist -9.01273
lhand 9.50805 23.3873
lfingers 7.12502
lthumb 34.6596 50.0222
rfemur 121.186 -182.123 -155.037
rtibia 43.3389
rfoot -41.119 -37.5257
rtoes 37.3031
lfemur -14.5989 -4.26277 -25.7163
ltibia 35.049
lfoot -1.02064 37.1828
ltoes 11.709
543
root -1.84982 16.6416 27.2458 214.601 148.159 -171.931
lowerback -23.3436 -1.96338 -2.35703
upperback -12.4138 -1.72142 0.0951488
thorax -0.5456 -0.593884 1.05653
lowerneck -10.2405 -2.09815 -1.52724
upperneck 41.5955 -0.939 -2.94381
head 16.7757 -0.787934 -1.1288
rclavicle -5.86415e-015 4.29375e-014
rhumerus -54.9852 -3.96838 -61.4013
rradius 11.3837
rwrist 0.836151
rhand 11.4025 10.4935
rfingers 7.12502
rthumb 36.4553 -15.7098
lclavicle -5.86415e-015 4.29375e-014
lhumerus -237.599 -183.312 241.604
lradius 23.5553
lwrist -8.13104
lhand 11.7618 24.7471
lfingers 7.12502
lthumb 36.7954 50.8642
rfemur 120.847 -182.403 -155.805
rtibia 43.3385
rfoot -41.2883 -37.9296
rtoes 36.5924
lfemur -14.8835 -4.39938 -26.1625
ltibia 35.0151
lfoot -5.17028 37.3831
ltoes 19.6161
544
root -1.84275 16.6426 27.2493 214.836 148.328 -171.738
lowerback -23.591 -1.94978 -2.55152
upperback -12.2246 -1.66328 0.216625
thorax -0.210962 -0.558083 1.30334
lowerneck -10.4341 -2.15097 -1.68062
upperneck 41.4659 -0.913912 -3.10538
head 16.7558 -0.825292 -1.16942
rclavicle 2.46493e-014 1.90833e-014
rhumerus -55.0083 -1.2654 -64.4825
rradius 12.4559
rwrist -3.63769
rhand 12.9671 9.79913
rfingers 7.12502
rthumb 37.9348 -16.0178
lclavicle 2.46493e-014 1.90833e-014
lhumerus -237.073 -183.57 241.956
lradius 23.3314
lwrist -7.67734
lhand 13.9033 25.837
lfingers 7.12502
lthumb 38.8184 51.4089
rfemur 120.711 -182.708 -156.273
rtibia 43.3034
rfoot -41.7608 -37.928
rtoes 36.9896
lfemur -15.0096 -4.70081 -26.3551
ltibia 35.0555
lfoot -12.8743 36.3128
ltoes 31.2681
545
root -1.82804 16.6469 27.2532 214.727 148.079 -172.001
lowerback -23.6906 -1.891 -2.083
upperback -12.0672 -1.68874 0.439007
thorax 0.0093587 -0.591067 1.26682
lowerneck -10.535 -2.20493 -1.75269
upperneck 41.4653 -0.927974 -3.22513
head 16.7822 -0.858785 -1.21414
rclavicle -8.94531e-014 1.19271e-014
rhumerus -55.1974 1.13979 -67.084
rradius 13.4983
rwrist -7.53025
rhand 14.6514 9.01494
rfingers 7.12502
rthumb 39.5234 -16.3531
lclavicle -8.94531e-014 1.19271e-014
lhumerus -236.5 -184.451 241.555
lradius 22.4855
lwrist -8.19022
lhand 15.6862 25.7203
lfingers 7.12502
lthumb 40.4972 50.7945
rfemur 120.802 -182.91 -156.157
rtibia 43.2346
rfoot -42.2286 -37.9776
rtoes 37.3745
lfemur -15.0647 -4.9479 -26.007
ltibia 35.1499
lfoot -17.0199 35.0979
ltoes 36.8205
546
root -1.81431 16.6539 27.2623 214.807 147.878 -172.123
lowerback -23.7165 -1.78836 -1.68026
upperback -12.1341 -1.63536 0.525076
thorax -0.0605952 -0.57712 1.14331
lowerneck -10.1599 -2.31484 -1.59893
upperneck 41.3669 -1.08253 -3.40203
head 16.625 -0.918634 -1.33634
rclavicle -4.90004e-014 8.74653e-015
rhumerus -55.799 2.99818 -69.1241
rradius 14.3977
rwrist -10.5986
rhand 16.2197 8.5583
rfingers 7.12502
rthumb 40.9985 -16.3586
lclavicle -4.90004e-014 8.74653e-015
lhumerus -236.226 -184.885 241.156
lradius 21.8011
lwrist -8.73978
lhand 17.5112 25.5725
lfingers 7.12502
lthumb 42.2099 50.0918
rfemur 120.768 -183.084 -156.177
rtibia 43.15
rfoot -42.5662 -38.1891
rtoes 37.3826
lfemur -15.444 -4.80465 -25.7789
ltibia 35.2969
lfoot -12.4622 36.9185
ltoes 31.1913
547
root -1.80304 16.6578 27.2679 215.076 147.752 -171.96
lowerback -23.6926 -1.7014 -1.508
upperback -12.2529 -1.55027 0.472851
thorax -0.211625 -0.539652 1.0108
lowerneck -9.88786 -2.42397 -1.36266
upperneck 41.3354 -1.21959 -3.65169
head 16.5288 -0.968107 -1.50544
rclavicle -1.15394e-013 -5.48646e-014
rhumerus -56.5578 4.1767 -70.6395
rradius 15.2693
rwrist -12.941
rhand 17.946 8.21905
rfingers 7.12502
rthumb 42.617 -16.1608
lclavicle -1.15394e-013 -5.48646e-014
lhumerus -236.041 -184.952 240.88
lradius 21.3602
lwrist -8.90579
lhand 19.3458 25.7407
lfingers 7.12502
lthumb 43.9252 49.6515
rfemur 120.628 -183.166 -156.453
rtibia 43.0977
rfoot -42.9333 -38.3118
rtoes 37.3549
lfemur -15.8614 -4.31094 -25.7679
ltibia 35.4321
lfoot -9.34688 37.8588
ltoes 27.4869
548
root -1.78559 16.6613 27.2651 215.233 147.562 -171.764
lowerback -23.6711 -1.70965 -1.27452
upperback -12.2606 -1.60845 0.505249
thorax -0.233371 -0.578788 0.900304
lowerneck -9.50178 -2.43277 -0.974382
upperneck 41.0117 -1.15703 -4.16163
head 16.245 -0.949279 -1.77228
rclavicle -1.25831e-013 -3.73715e-014
rhumerus -57.0871 5.22966 -71.7619
rradius 16.0509
rwrist -14.6602
rhand 19.4675 7.95121
rfingers 7.12502
rthumb 44.0387 -15.9172
lclavicle -1.25831e-013 -3.73715e-014
lhumerus -235.958 -185.334 240.559
lradius 21.0741
lwrist -8.95023
lhand 21.0795 26.003
lfingers 7.12502
lthumb 45.5393 49.2869
rfemur 120.604 -183.139 -156.736
rtibia 43.1093
rfoot -43.3079 -38.3932
rtoes 37.6379
lfemur -15.9992 -3.83665 -25.7783
ltibia 35.505
lfoot -9.93049 37.7633
ltoes 29.6351
549
root -1.7693 16.6651 27.2605 215.222 147.399 -171.634
lowerback -23.5619 -1.70138 -1.00191
upperback -12.1635 -1.66122 0.589516
thorax -0.181001 -0.618543 0.824816
lowerneck -9.81714 -2.36248 -1.4546
upperneck 41.1134 -0.974018 -3.98756
head 16.3965 -0.924741 -1.5898
rclavicle -1.09332e-015 -7.95139e-016
rhumerus -57.3743 6.20597 -72.6569
rradius 16.7286
rwrist -16.2409
rhand 21.1388 7.68375
rfingers 7.12502
rthumb 45.5944 -15.5778
lclavicle -1.09332e-015 -7.95139e-016
lhumerus -235.749 -185.943 240.276
lradius 20.7512
lwrist -9.06932
lhand 22.4551 26.4658
lfingers 7.12502
lthumb 46.8149 49.2132
rfemur 120.711 -183.16 -156.986
rtibia 43.1495
rfoot -43.8427 -38.3484
rtoes 38.1525
lfemur -15.9697 -3.46858 -25.8126
ltibia 35.5479
lfoot -9.3025 37.8196
ltoes 29.9832
550
root -1.75417 16.6727 27.2528 215.18 147.194 -171.559
lowerback -23.3681 -1.63712 -0.691549
upperback -12.0684 -1.64955 0.697938
thorax -0.174051 -0.626125 0.769911
lowerneck -10.0185 -2.39283 -1.89119
upperneck 40.9933 -0.919498 -3.93966
head 16.3934 -0.964917 -1.48125
rclavicle -1.47101e-014 3.89618e-014
rhumerus -57.5968 6.97535 -73.2634
rradius 17.2917
rwrist -17.8738
rhand 22.7526 7.41322
rfingers 7.12502
rthumb 47.0902 -15.2132
lclavicle -1.47101e-014 3.89618e-014
lhumerus -235.466 -186.393 240.209
lradius 20.5053
lwrist -8.96302
lhand 23.4255 26.9255
lfingers 7.12502
lthumb 47.7118 49.2717
rfemur 120.807 -183.171 -157.177
rtibia 43.1856
rfoot -44.3263 -38.3577
rtoes 38.2943
lfemur -15.9692 -3.44305 -25.8044
ltibia 35.6063
lfoot -9.73918 37.859
ltoes 30.9409
551
root -1.74249 16.6788 27.244 215.146 146.866 -171.634
lowerback -23.2951 -1.60636 -0.287323
upperback -11.9828 -1.69859 0.889797
thorax -0.119036 -0.664772 0.735318
lowerneck -10.3361 -2.41767 -2.20748
upperneck 41.0454 -0.860831 -3.92985
head 16.5107 -0.989727 -1.41833
rclavicle -4.00551e-014 -1.43125e-014
rhumerus -57.7283 7.75268 -73.8332
rradius 17.6239
rwrist -19.4029
rhand 23.8274 7.43015
rfingers 7.12502
rthumb 48.0825 -14.7441
lclavicle -4.00551e-014 -1.43125e-014
lhumerus -235.276 -186.598 240.34
lradius 20.3771
lwrist -8.69119
lhand 24.4996 27.0977
lfingers 7.12502
lthumb 48.7014 48.9765
rfemur 120.803 -183.196 -157.17
rtibia 43.1964
rfoot -44.4178 -38.7767
rtoes 37.9197
lfemur -16.0984 -3.46057 -25.5659
ltibia 35.7085
lfoot -12.1449 37.5044
ltoes 34.6368
552
root -1.73239 16.6844 27.2368 215.044 146.61 -171.691
lowerback -23.2078 -1.53755 0.0983904
upperback -11.8565 -1.69454 1.00809
thorax -0.0292416 -0.678693 0.644026
lowerneck -9.89631 -2.57853 -1.7947
upperneck 40.8407 -1.15065 -4.18545
head 16.2711 -1.07675 -1.63585
rclavicle 9.24349e-014 5.725e-014
rhumerus -57.8335 8.12654 -74.0729
rradius 17.967
rwrist -20.6683
rhand 25.1352 6.92621
rfingers 7.12502
rthumb 49.2853 -14.6639
lclavicle 9.24349e-014 5.725e-014
lhumerus -234.982 -186.718 240.404
lradius 20.2018
lwrist -8.4571
lhand 25.5104 27.1941
lfingers 7.12502
lthumb 49.6293 48.6093
rfemur 120.895 -183.27 -157.204
rtibia 43.2026
rfoot -44.5879 -39.1248
rtoes 37.6412
lfemur -16.1884 -3.20574 -25.4041
ltibia 35.8335
lfoot -11.1697 37.8329
ltoes 34.0699
